<svg xmlns="http://www.w3.org/2000/svg" width="256" height="256" viewBox="0 0 256 256" fill="none">
  <style>
    :root{--c1:#3A86FF;--c2:#00e7ff;--geo:#4cc9f0;}
    @media (prefers-color-scheme: dark){:root{--c1:#6aa3ff;--c2:#00e7ff;--geo:#72ddff;}}
  </style>
  <defs>
    <linearGradient id="gBlue" x1="0" y1="0" x2="256" y2="256" gradientUnits="userSpaceOnUse">
      <stop offset="0" style="stop-color:var(--c1)"/>
      <stop offset="1" style="stop-color:var(--c2)"/>
    </linearGradient>
  </defs>
  <rect x="20" y="20" width="216" height="216" rx="28" stroke="url(#gBlue)" stroke-width="10"/>
  <g transform="translate(28,36)">
    <polygon points="100,16 160,48 100,80 40,48" fill="none" stroke="url(#gBlue)" stroke-width="8"/>
    <polygon points="100,80 160,112 100,144 40,112" fill="none" stroke="url(#gBlue)" stroke-width="8"/>
    <path d="M100 80 C116 92 124 104 124 120 C124 144 100 172 100 172 C100 172 76 144 76 120 C76 104 84 92 100 80 Z" fill="none" stroke="#4cc9f0" style="stroke:var(--geo)" stroke-width="10"/>
    <circle cx="100" cy="120" r="12" fill="#4cc9f0" style="fill:var(--geo)"/>
    <rect x="144" y="92" width="36" height="36" transform="skewX(-20) skewY(10)" fill="none" stroke="url(#gBlue)" stroke-width="8"/>
    <rect x="156" y="104" width="24" height="24" transform="skewX(-20) skewY(10)" fill="none" stroke="#4cc9f0" style="stroke:var(--geo)" stroke-width="6"/>
  </g>
</svg>
