<svg xmlns="http://www.w3.org/2000/svg" width="256" height="256" viewBox="0 0 256 256" fill="none">
  <style>
    :root{--c1:#3A86FF;--c2:#00e7ff;--cGov:#1b4fb8;--metal1:#d0d6e3;--metal2:#687385;--bg:#0f172a;}
    @media (prefers-color-scheme: dark){:root{--c1:#6aa3ff;--c2:#00e7ff;--cGov:#1a3f99;--metal1:#a9b2c2;--metal2:#5a6475;}}
  </style>
  <defs>
    <linearGradient id="gBlue" x1="0" y1="0" x2="256" y2="256" gradientUnits="userSpaceOnUse">
      <stop offset="0" stop-color="#3A86FF" style="stop-color:var(--c1)"/>
      <stop offset="1" stop-color="#00e7ff" style="stop-color:var(--c2)"/>
    </linearGradient>
    <linearGradient id="gChip" x1="64" y1="64" x2="128" y2="128" gradientUnits="userSpaceOnUse">
      <stop offset="0" stop-color="#00e7ff" style="stop-color:var(--c2)"/>
      <stop offset="1" stop-color="#3A86FF" style="stop-color:var(--c1)"/>
    </linearGradient>
  </defs>
  <rect x="20" y="20" width="216" height="216" rx="28" stroke="url(#gBlue)" stroke-width="10"/>
  <g transform="translate(48,48)">
    <path d="M36 20h88a16 16 0 0 1 16 16v76l-28 28H36a16 16 0 0 1-16-16V36a16 16 0 0 1 16-16z" fill="none" stroke="url(#gBlue)" stroke-width="8"/>
    <path d="M140 112l0-24 24 0" fill="none" stroke="url(#gBlue)" stroke-width="8"/>
    <path d="M132 60h-64" stroke="url(#gBlue)" stroke-width="8" stroke-linecap="round"/>
    <path d="M132 84h-64" stroke="url(#gBlue)" stroke-width="8" stroke-linecap="round"/>
    <rect x="12" y="104" width="56" height="56" rx="12" fill="none" stroke="url(#gChip)" stroke-width="8"/>
    <circle cx="24" cy="116" r="6" fill="#00e7ff" style="fill:var(--c2)"/>
    <circle cx="56" cy="148" r="6" fill="#3A86FF" style="fill:var(--c1)"/>
    <circle cx="40" cy="132" r="6" fill="#00e7ff" style="fill:var(--c2)"/>
    <path d="M30 122 L36 128" stroke="url(#gChip)" stroke-width="6" stroke-linecap="round"/>
    <path d="M46 138 L52 144" stroke="url(#gChip)" stroke-width="6" stroke-linecap="round"/>
    <path d="M68 132 C96 120 108 108 124 96" stroke="url(#gBlue)" stroke-width="6" stroke-linecap="round" fill="none"/>
    <path d="M124 96 C140 84 148 72 152 60" stroke="url(#gBlue)" stroke-width="6" stroke-linecap="round" fill="none"/>
  </g>
</svg>
